<?xml version="1.0" encoding="utf-8"?>
<!-- Generator: Adobe Illustrator 16.0.0, SVG Export Plug-In . SVG Version: 6.00 Build 0)  -->
<!DOCTYPE svg PUBLIC "-//W3C//DTD SVG 1.1//EN" "http://www.w3.org/Graphics/SVG/1.1/DTD/svg11.dtd">
<svg version="1.1" id="Layer_1" xmlns="http://www.w3.org/2000/svg" xmlns:xlink="http://www.w3.org/1999/xlink" x="0px" y="0px"
	 width="26.5px" height="23.5px" viewBox="11.667 17.167 26.5 23.5" enable-background="new 11.667 17.167 26.5 23.5"
	 xml:space="preserve">
<g>
	<path fill="#F4F4F4" d="M37.512,17.938H12.488c-0.192,0-0.321,0.128-0.321,0.321v3.85c0,0.192,0.128,0.321,0.321,0.321h25.024
		c0.193,0,0.321-0.128,0.321-0.321v-3.85C37.833,18.066,37.705,17.938,37.512,17.938z"/>
	<path fill="#F4F4F4" d="M37.512,26.921H12.488c-0.192,0-0.321,0.128-0.321,0.32v3.851c0,0.192,0.128,0.321,0.321,0.321h25.024
		c0.193,0,0.321-0.129,0.321-0.321v-3.851C37.833,27.049,37.705,26.921,37.512,26.921z"/>
	<path fill="#F4F4F4" d="M37.512,35.904H12.488c-0.192,0-0.321,0.128-0.321,0.321v3.85c0,0.192,0.128,0.32,0.321,0.32h25.024
		c0.193,0,0.321-0.128,0.321-0.32v-3.85C37.833,36.032,37.705,35.904,37.512,35.904z"/>
</g>
</svg>
